<svg width="36" height="36" viewBox="0 0 36 36" fill="none" xmlns="http://www.w3.org/2000/svg">
<g id="fluent-mdl2:facebook-logo" clip-path="url(#clip0_180_2094)">
<path id="Vector" d="M18 0C19.6523 0 21.2461 0.210938 22.7812 0.632812C24.3164 1.05469 25.7461 1.66406 27.0703 2.46094C28.3945 3.25781 29.6074 4.19531 30.709 5.27344C31.8105 6.35156 32.7539 7.56445 33.5391 8.91211C34.3242 10.2598 34.9277 11.6953 35.3496 13.2188C35.7715 14.7422 35.9883 16.3359 36 18C36 19.4766 35.8301 20.9062 35.4902 22.2891C35.1504 23.6719 34.6582 24.9902 34.0137 26.2441C33.3691 27.498 32.5957 28.6465 31.6934 29.6895C30.791 30.7324 29.7715 31.6758 28.6348 32.5195C27.498 33.3633 26.2793 34.0547 24.9785 34.5938C23.6777 35.1328 22.2891 35.5312 20.8125 35.7891V23.2031H25.0137L25.8047 18H20.8125V14.625C20.8125 13.9805 20.918 13.4707 21.1289 13.0957C21.3398 12.7207 21.6211 12.4395 21.9727 12.252C22.3242 12.0645 22.7227 11.9414 23.168 11.8828C23.6133 11.8242 24.0762 11.7949 24.5566 11.7949H25.2949C25.541 11.7949 25.7812 11.8008 26.0156 11.8125V7.38281C25.3594 7.26562 24.6914 7.17773 24.0117 7.11914C23.332 7.06055 22.6582 7.03125 21.9902 7.03125C20.9004 7.03125 19.9336 7.19531 19.0898 7.52344C18.2461 7.85156 17.5371 8.32031 16.9629 8.92969C16.3887 9.53906 15.9492 10.2715 15.6445 11.127C15.3398 11.9824 15.1875 12.9492 15.1875 14.0273V18H10.6172V23.2031H15.1875V35.7891C13.7227 35.5664 12.334 35.1738 11.0215 34.6113C9.70898 34.0488 8.49023 33.3574 7.36523 32.5371C6.24023 31.7168 5.22656 30.7734 4.32422 29.707C3.42188 28.6406 2.64844 27.4863 2.00391 26.2441C1.35938 25.002 0.867188 23.6895 0.527344 22.3066C0.1875 20.9238 0.0117188 19.4883 0 18C0 16.3477 0.210938 14.7539 0.632812 13.2188C1.05469 11.6836 1.66406 10.2539 2.46094 8.92969C3.25781 7.60547 4.19531 6.39258 5.27344 5.29102C6.35156 4.18945 7.56445 3.24609 8.91211 2.46094C10.2598 1.67578 11.6953 1.07227 13.2188 0.650391C14.7422 0.228516 16.3359 0.0117188 18 0Z" fill="#298BED"/>
</g>
<defs>
<clipPath id="clip0_180_2094">
<rect width="36" height="36" fill="white"/>
</clipPath>
</defs>
</svg>
